# xmcd
#
# Track frame offsets:
#	150
#	11740
#	25279
#	34915
#	53863
#	64418
#	81058
#	93371
#	105358
#	117533
#	132061
#	145598
#	162722
#	183011
#	196198
#	210683
#
# Disc length: 3060 seconds
# Revision: 0
# Processed by: cddbd v1.5.2PL0 Copyright (c) Steve Scherf et al.
# Submitted via: dBpowerAMP V12.0
#
DISCID=d90bf210
DTITLE=Various Artist - Country Music Legends (Special Collector's Edition)
DYEAR=2011
DGENRE=Country
TTITLE0=Willie Nelson - On The Road Again
TTITLE1=Dolly Parton - 9 To 5
TTITLE2=Waylon Jennings - Theme From "The Dukes Of Hazzard" (Good Ol' Boys)
TTITLE3=Alabama - Mountain Music
TTITLE4=Flatt and Scruggs - Foggy Mountain Breakdown
TTITLE5=Charlie Daniels - Drinkin' My Baby Goodbye
TTITLE6=George Jones - I Just Don't Give A Damn
TTITLE7=Tammy Wynette - Stand By Your Man
TTITLE8=Johnny Cash - Hit The Road And Go
TTITLE9=David Allan Coe - Willie, Waylon And Me
TTITLE10=Merle Haggard - Big City
TTITLE11=Alan Jackson - Gone Crazy
TTITLE12=Clint Black With Lisa Hartman Black - When I Said I Do
TTITLE13=Larry Gatlin - Houston (Means I'm One Day Closer To You)
TTITLE14=Charlie Rich and Janie Fricke - On My Knees
TTITLE15=Earl Thomas Conley - Somewhere Between Right And Wrong
EXTD=
EXTT0=
EXTT1=
EXTT2=
EXTT3=
EXTT4=
EXTT5=
EXTT6=
EXTT7=
EXTT8=
EXTT9=
EXTT10=
EXTT11=
EXTT12=
EXTT13=
EXTT14=
EXTT15=
PLAYORDER=
